<svg width="220" height="220" viewBox="0 0 220 220" fill="none" xmlns="http://www.w3.org/2000/svg">
<rect width="220" height="220" fill="#193549"/>
<path d="M104.879 38.7852C103.865 40.0221 102.85 41.2467 101.836 42.459C100.846 43.6712 99.8815 44.9082 98.9414 46.1699C98.4466 46.8132 98.0137 47.4193 97.6426 47.9883C97.2962 48.5326 96.9993 49.0892 96.752 49.6582C96.5046 50.2272 96.319 50.8333 96.1953 51.4766C96.0964 52.1198 96.0469 52.8372 96.0469 53.6289V83.3535C96.0469 85.8027 95.5645 88.153 94.5996 90.4043C93.6595 92.6309 92.373 94.5977 90.7402 96.3047C89.1074 98.0365 87.2025 99.4095 85.0254 100.424C82.8483 101.438 80.5228 101.945 78.0488 101.945C76.0202 101.945 74.1152 101.587 72.334 100.869C70.528 100.152 68.8581 99.1497 67.3242 97.8633L73.5586 92.2969C73.9297 93.0638 74.4492 93.8431 75.1172 94.6348C75.7852 95.4512 76.5273 96.1934 77.3438 96.8613C78.1602 97.5293 79.0137 98.0736 79.9043 98.4941C80.8197 98.9395 81.7227 99.1621 82.6133 99.1621C83.8255 99.1621 84.8027 98.8652 85.5449 98.2715C86.3118 97.6777 86.8932 96.9232 87.2891 96.0078C87.7096 95.1172 87.9941 94.1276 88.1426 93.0391C88.291 91.9753 88.3652 90.9733 88.3652 90.0332V57.9336C88.3652 56.7708 88.6003 55.6328 89.0703 54.5195C89.5651 53.4062 90.1836 52.3548 90.9258 51.3652C91.668 50.3509 92.4844 49.4108 93.375 48.5449C94.2656 47.679 95.1315 46.8874 95.9727 46.1699H87.7715C86.8314 46.1699 85.9902 46.2689 85.248 46.4668C84.5059 46.64 83.8132 46.8997 83.1699 47.2461C82.5514 47.5924 81.9577 48.0254 81.3887 48.5449C80.8197 49.0645 80.2383 49.6706 79.6445 50.3633L78.5684 49.1387C79.4095 48.0007 80.4115 46.8255 81.5742 45.6133C82.737 44.3763 83.9863 43.263 85.3223 42.2734C86.6829 41.2591 88.1055 40.4303 89.5898 39.7871C91.099 39.1191 92.6204 38.7852 94.1543 38.7852H104.879ZM144.846 46.2441L138.611 53.7773C138.067 52.1445 137.362 50.5859 136.496 49.1016C135.63 47.6172 134.604 46.3184 133.416 45.2051C132.229 44.0918 130.88 43.2012 129.371 42.5332C127.862 41.8652 126.18 41.5312 124.324 41.5312C122.988 41.5312 121.751 41.7786 120.613 42.2734C119.475 42.7435 118.473 43.4115 117.607 44.2773C116.766 45.1185 116.098 46.1204 115.604 47.2832C115.133 48.446 114.898 49.6953 114.898 51.0312C114.898 52.4167 115.158 53.7155 115.678 54.9277C116.197 56.14 116.89 57.2409 117.756 58.2305C118.622 59.1953 119.611 60.0365 120.725 60.7539C121.863 61.4714 123.038 62.028 124.25 62.4238C125.462 62.8444 126.736 63.3145 128.072 63.834C129.408 64.3535 130.719 64.9596 132.006 65.6523C133.292 66.3451 134.517 67.1243 135.68 67.9902C136.842 68.8314 137.869 69.7839 138.76 70.8477C139.65 71.9115 140.355 73.099 140.875 74.4102C141.395 75.6966 141.654 77.1068 141.654 78.6406C141.654 80.8672 141.16 82.8711 140.17 84.6523C139.205 86.4089 137.931 87.8932 136.348 89.1055C134.764 90.3177 132.946 91.2454 130.893 91.8887C128.864 92.5319 126.798 92.8535 124.695 92.8535C123.26 92.8535 121.801 92.6432 120.316 92.2227C118.857 91.8021 117.447 91.2331 116.086 90.5156C114.75 89.7734 113.488 88.9199 112.301 87.9551C111.138 86.9902 110.124 85.9512 109.258 84.8379L115.27 77.9355C115.641 79.123 116.284 80.3848 117.199 81.7207C118.139 83.0566 119.228 84.2936 120.465 85.4316C121.702 86.5697 123.025 87.5221 124.436 88.2891C125.87 89.0312 127.256 89.4023 128.592 89.4023C129.359 89.4023 130.15 89.2044 130.967 88.8086C131.783 88.4128 132.525 87.9056 133.193 87.2871C133.886 86.6439 134.455 85.9512 134.9 85.209C135.346 84.4668 135.568 83.737 135.568 83.0195C135.568 81.931 135.346 80.9043 134.9 79.9395C134.455 78.9499 133.861 78.0221 133.119 77.1562C132.402 76.2904 131.561 75.4987 130.596 74.7812C129.656 74.0391 128.666 73.3835 127.627 72.8145C126.613 72.2207 125.586 71.7135 124.547 71.293C123.533 70.8477 122.592 70.5013 121.727 70.2539C120.02 69.7344 118.35 68.9922 116.717 68.0273C115.109 67.0625 113.674 65.8997 112.412 64.5391C111.15 63.1784 110.136 61.6569 109.369 59.9746C108.602 58.2676 108.219 56.4492 108.219 54.5195C108.219 52.862 108.479 51.291 108.998 49.8066C109.518 48.3223 110.235 46.9492 111.15 45.6875C112.066 44.4258 113.142 43.2878 114.379 42.2734C115.616 41.2344 116.952 40.3685 118.387 39.6758C119.822 38.9583 121.318 38.4141 122.877 38.043C124.436 37.6471 126.007 37.4492 127.59 37.4492C131.053 37.4492 134.27 38.2285 137.238 39.7871C140.207 41.321 142.743 43.4733 144.846 46.2441ZM101.391 165.191C101.391 166.923 101.118 168.544 100.574 170.053C100.03 171.562 99.2878 172.972 98.3477 174.283C97.4323 175.57 96.3438 176.757 95.082 177.846C93.8451 178.934 92.5091 179.911 91.0742 180.777C89.6641 181.618 88.1921 182.361 86.6582 183.004C85.1243 183.672 83.6276 184.216 82.168 184.637C80.3372 185.181 78.4694 185.589 76.5645 185.861C74.6842 186.158 72.7793 186.307 70.8496 186.307C70.5033 186.307 70.1445 186.307 69.7734 186.307C69.4023 186.307 69.0189 186.282 68.623 186.232L68.252 184.562C69.8353 184.365 71.5299 184.006 73.3359 183.486C75.1667 182.992 76.9727 182.348 78.7539 181.557C80.5352 180.765 82.2422 179.837 83.875 178.773C85.5078 177.71 86.9551 176.497 88.2168 175.137C89.4785 173.776 90.4805 172.292 91.2227 170.684C91.9648 169.051 92.3359 167.294 92.3359 165.414C92.3359 163.757 92.0267 162.26 91.4082 160.924C90.7897 159.563 89.9486 158.413 88.8848 157.473C87.821 156.533 86.5716 155.815 85.1367 155.32C83.7018 154.801 82.1556 154.541 80.498 154.541C78.8158 154.541 77.1458 154.751 75.4883 155.172C73.8555 155.568 72.2598 156.05 70.7012 156.619L70.0703 154.949C71.1094 154.454 72.235 153.885 73.4473 153.242C74.6842 152.574 75.8965 151.832 77.084 151.016C78.2962 150.199 79.459 149.309 80.5723 148.344C81.6855 147.379 82.6751 146.352 83.541 145.264C84.4069 144.15 85.0872 142.975 85.582 141.738C86.1016 140.501 86.3613 139.202 86.3613 137.842C86.3613 136.036 85.8913 134.712 84.9512 133.871C84.0111 133.005 82.6504 132.572 80.8691 132.572C79.8053 132.572 78.6797 132.733 77.4922 133.055C76.3047 133.376 75.1419 133.809 74.0039 134.354C72.8659 134.873 71.7897 135.492 70.7754 136.209C69.7611 136.926 68.8952 137.669 68.1777 138.436L66.9531 137.285C67.9922 136.023 69.2168 134.762 70.627 133.5C72.0371 132.238 73.5462 131.113 75.1543 130.123C76.7871 129.109 78.4818 128.292 80.2383 127.674C81.9948 127.055 83.7513 126.746 85.5078 126.746C86.7695 126.746 88.0189 126.932 89.2559 127.303C90.4928 127.674 91.5938 128.218 92.5586 128.936C93.5482 129.653 94.3398 130.544 94.9336 131.607C95.5521 132.671 95.8613 133.908 95.8613 135.318C95.8613 136.654 95.5768 137.941 95.0078 139.178C94.4635 140.39 93.7337 141.553 92.8184 142.666C91.903 143.755 90.8516 144.794 89.6641 145.783C88.4766 146.748 87.252 147.639 85.9902 148.455C84.7533 149.247 83.5163 149.964 82.2793 150.607C81.0423 151.251 79.9167 151.807 78.9023 152.277C80.1146 151.956 81.3268 151.708 82.5391 151.535C83.7513 151.362 84.9635 151.275 86.1758 151.275C88.2539 151.275 90.2083 151.609 92.0391 152.277C93.8945 152.921 95.515 153.848 96.9004 155.061C98.2858 156.273 99.3743 157.745 100.166 159.477C100.982 161.184 101.391 163.089 101.391 165.191ZM151.971 154.318C151.971 156.57 151.736 158.809 151.266 161.035C150.796 163.262 150.103 165.389 149.188 167.418C148.297 169.447 147.196 171.339 145.885 173.096C144.598 174.827 143.126 176.337 141.469 177.623C139.811 178.91 137.993 179.924 136.014 180.666C134.035 181.383 131.907 181.742 129.631 181.742C127.355 181.742 125.215 181.383 123.211 180.666C121.232 179.924 119.413 178.91 117.756 177.623C116.098 176.337 114.626 174.827 113.34 173.096C112.053 171.339 110.952 169.447 110.037 167.418C109.146 165.389 108.466 163.262 107.996 161.035C107.526 158.809 107.291 156.57 107.291 154.318C107.291 152.092 107.526 149.865 107.996 147.639C108.466 145.412 109.146 143.285 110.037 141.256C110.952 139.202 112.053 137.31 113.34 135.578C114.626 133.822 116.098 132.3 117.756 131.014C119.413 129.727 121.232 128.725 123.211 128.008C125.215 127.266 127.355 126.895 129.631 126.895C131.907 126.895 134.035 127.266 136.014 128.008C137.993 128.725 139.811 129.727 141.469 131.014C143.126 132.3 144.598 133.822 145.885 135.578C147.196 137.31 148.297 139.202 149.188 141.256C150.103 143.285 150.796 145.412 151.266 147.639C151.736 149.865 151.971 152.092 151.971 154.318ZM144.771 158.141C144.771 156.31 144.598 154.368 144.252 152.314C143.906 150.236 143.386 148.183 142.693 146.154C142.025 144.101 141.184 142.146 140.17 140.291C139.18 138.411 138.03 136.753 136.719 135.318C135.408 133.883 133.948 132.745 132.34 131.904C130.757 131.038 129.025 130.605 127.145 130.605C125.66 130.605 124.324 130.878 123.137 131.422C121.974 131.966 120.935 132.708 120.02 133.648C119.104 134.564 118.312 135.64 117.645 136.877C117.001 138.114 116.469 139.425 116.049 140.811C115.628 142.196 115.319 143.631 115.121 145.115C114.923 146.575 114.824 147.997 114.824 149.383C114.824 151.214 114.997 153.168 115.344 155.246C115.69 157.324 116.197 159.39 116.865 161.443C117.533 163.497 118.362 165.476 119.352 167.381C120.341 169.261 121.479 170.931 122.766 172.391C124.077 173.826 125.524 174.976 127.107 175.842C128.691 176.708 130.423 177.141 132.303 177.141C133.787 177.141 135.123 176.868 136.311 176.324C137.498 175.78 138.549 175.038 139.465 174.098C140.405 173.158 141.209 172.069 141.877 170.832C142.545 169.57 143.089 168.234 143.51 166.824C143.93 165.414 144.24 163.967 144.438 162.482C144.66 160.998 144.771 159.551 144.771 158.141Z" fill="#FCFCFC"/>
</svg>
